<mxfile host="app.diagrams.net" agent="Mozilla/5.0 (Windows NT 10.0; Win64; x64; rv:138.0) Gecko/20100101 Firefox/138.0" version="27.1.6">
  <diagram name="Page-1" id="5jvHAGzZtBRhDhUECYp1">
    <mxGraphModel dx="1321" dy="724" grid="1" gridSize="10" guides="1" tooltips="1" connect="1" arrows="1" fold="1" page="1" pageScale="1" pageWidth="850" pageHeight="1100" math="0" shadow="0">
      <root>
        <mxCell id="0" />
        <mxCell id="1" parent="0" />
        <mxCell id="wCrvSFXrAw56gXbHrBbI-52" value="" style="rounded=0;whiteSpace=wrap;html=1;" vertex="1" parent="1">
          <mxGeometry x="255" width="260" height="1010" as="geometry" />
        </mxCell>
        <mxCell id="wCrvSFXrAw56gXbHrBbI-30" style="edgeStyle=orthogonalEdgeStyle;rounded=0;orthogonalLoop=1;jettySize=auto;html=1;exitX=0.5;exitY=0.5;exitDx=0;exitDy=0;exitPerimeter=0;entryX=0;entryY=0.5;entryDx=0;entryDy=0;" edge="1" parent="1" source="wCrvSFXrAw56gXbHrBbI-22" target="wCrvSFXrAw56gXbHrBbI-24">
          <mxGeometry relative="1" as="geometry" />
        </mxCell>
        <mxCell id="wCrvSFXrAw56gXbHrBbI-31" style="edgeStyle=orthogonalEdgeStyle;rounded=0;orthogonalLoop=1;jettySize=auto;html=1;exitX=0.5;exitY=0.5;exitDx=0;exitDy=0;exitPerimeter=0;entryX=0;entryY=0.5;entryDx=0;entryDy=0;" edge="1" parent="1" source="wCrvSFXrAw56gXbHrBbI-22" target="wCrvSFXrAw56gXbHrBbI-25">
          <mxGeometry relative="1" as="geometry" />
        </mxCell>
        <mxCell id="wCrvSFXrAw56gXbHrBbI-22" value="&lt;div&gt;Recepcionista&lt;/div&gt;" style="shape=umlActor;verticalLabelPosition=bottom;verticalAlign=top;html=1;outlineConnect=0;" vertex="1" parent="1">
          <mxGeometry x="140" y="120" width="30" height="60" as="geometry" />
        </mxCell>
        <mxCell id="wCrvSFXrAw56gXbHrBbI-24" value="Loga no Painel Administrativo" style="ellipse;whiteSpace=wrap;html=1;fillColor=#6a00ff;fontColor=#ffffff;strokeColor=#3700CC;" vertex="1" parent="1">
          <mxGeometry x="290" y="60" width="190" height="80" as="geometry" />
        </mxCell>
        <mxCell id="wCrvSFXrAw56gXbHrBbI-35" style="edgeStyle=orthogonalEdgeStyle;rounded=0;orthogonalLoop=1;jettySize=auto;html=1;exitX=1;exitY=0.5;exitDx=0;exitDy=0;dashed=1;curved=1;fillColor=#e3c800;strokeColor=#B09500;" edge="1" parent="1" source="wCrvSFXrAw56gXbHrBbI-25" target="wCrvSFXrAw56gXbHrBbI-32">
          <mxGeometry relative="1" as="geometry">
            <Array as="points">
              <mxPoint x="490" y="260" />
              <mxPoint x="605" y="260" />
            </Array>
          </mxGeometry>
        </mxCell>
        <mxCell id="wCrvSFXrAw56gXbHrBbI-25" value="Cadastra Responsáve e criança" style="ellipse;whiteSpace=wrap;html=1;fillColor=#6a00ff;fontColor=#ffffff;strokeColor=#3700CC;" vertex="1" parent="1">
          <mxGeometry x="290" y="160" width="190" height="80" as="geometry" />
        </mxCell>
        <mxCell id="wCrvSFXrAw56gXbHrBbI-26" value="Escreve dados (ID) na pulseia" style="ellipse;whiteSpace=wrap;html=1;fillColor=#a20025;fontColor=#ffffff;strokeColor=#6F0000;" vertex="1" parent="1">
          <mxGeometry x="290" y="290" width="190" height="80" as="geometry" />
        </mxCell>
        <mxCell id="wCrvSFXrAw56gXbHrBbI-34" style="edgeStyle=orthogonalEdgeStyle;rounded=0;orthogonalLoop=1;jettySize=auto;html=1;exitX=0.5;exitY=0.5;exitDx=0;exitDy=0;exitPerimeter=0;entryX=1;entryY=0.5;entryDx=0;entryDy=0;" edge="1" parent="1" source="wCrvSFXrAw56gXbHrBbI-32" target="wCrvSFXrAw56gXbHrBbI-26">
          <mxGeometry relative="1" as="geometry" />
        </mxCell>
        <mxCell id="wCrvSFXrAw56gXbHrBbI-32" value="&lt;div&gt;Arduino&lt;/div&gt;" style="shape=umlActor;verticalLabelPosition=bottom;verticalAlign=top;html=1;outlineConnect=0;" vertex="1" parent="1">
          <mxGeometry x="590" y="300" width="30" height="60" as="geometry" />
        </mxCell>
        <mxCell id="wCrvSFXrAw56gXbHrBbI-48" style="edgeStyle=orthogonalEdgeStyle;rounded=0;orthogonalLoop=1;jettySize=auto;html=1;exitX=0.5;exitY=0.5;exitDx=0;exitDy=0;exitPerimeter=0;entryX=0;entryY=0.5;entryDx=0;entryDy=0;" edge="1" parent="1" source="wCrvSFXrAw56gXbHrBbI-36" target="wCrvSFXrAw56gXbHrBbI-37">
          <mxGeometry relative="1" as="geometry" />
        </mxCell>
        <mxCell id="wCrvSFXrAw56gXbHrBbI-49" style="edgeStyle=orthogonalEdgeStyle;rounded=0;orthogonalLoop=1;jettySize=auto;html=1;exitX=0.5;exitY=0.5;exitDx=0;exitDy=0;exitPerimeter=0;entryX=0;entryY=0.5;entryDx=0;entryDy=0;" edge="1" parent="1" source="wCrvSFXrAw56gXbHrBbI-36" target="wCrvSFXrAw56gXbHrBbI-38">
          <mxGeometry relative="1" as="geometry" />
        </mxCell>
        <mxCell id="wCrvSFXrAw56gXbHrBbI-50" style="edgeStyle=orthogonalEdgeStyle;rounded=0;orthogonalLoop=1;jettySize=auto;html=1;exitX=0.5;exitY=0.5;exitDx=0;exitDy=0;exitPerimeter=0;entryX=0;entryY=0.5;entryDx=0;entryDy=0;" edge="1" parent="1" source="wCrvSFXrAw56gXbHrBbI-36" target="wCrvSFXrAw56gXbHrBbI-39">
          <mxGeometry relative="1" as="geometry" />
        </mxCell>
        <mxCell id="wCrvSFXrAw56gXbHrBbI-36" value="Responsável" style="shape=umlActor;verticalLabelPosition=bottom;verticalAlign=top;html=1;outlineConnect=0;" vertex="1" parent="1">
          <mxGeometry x="130" y="440" width="30" height="60" as="geometry" />
        </mxCell>
        <mxCell id="wCrvSFXrAw56gXbHrBbI-37" value="Loga no App" style="ellipse;whiteSpace=wrap;html=1;fillColor=#0050ef;fontColor=#ffffff;strokeColor=#001DBC;" vertex="1" parent="1">
          <mxGeometry x="290" y="430" width="190" height="80" as="geometry" />
        </mxCell>
        <mxCell id="wCrvSFXrAw56gXbHrBbI-38" value="Conecta com a pulseira" style="ellipse;whiteSpace=wrap;html=1;fillColor=#0050ef;fontColor=#ffffff;strokeColor=#001DBC;" vertex="1" parent="1">
          <mxGeometry x="290" y="530" width="190" height="80" as="geometry" />
        </mxCell>
        <mxCell id="wCrvSFXrAw56gXbHrBbI-39" value="Busca Localização" style="ellipse;whiteSpace=wrap;html=1;fillColor=#0050ef;fontColor=#ffffff;strokeColor=#001DBC;" vertex="1" parent="1">
          <mxGeometry x="290" y="650" width="190" height="80" as="geometry" />
        </mxCell>
        <mxCell id="wCrvSFXrAw56gXbHrBbI-44" style="edgeStyle=orthogonalEdgeStyle;rounded=0;orthogonalLoop=1;jettySize=auto;html=1;entryX=1;entryY=0.5;entryDx=0;entryDy=0;" edge="1" parent="1" source="wCrvSFXrAw56gXbHrBbI-40" target="wCrvSFXrAw56gXbHrBbI-41">
          <mxGeometry relative="1" as="geometry" />
        </mxCell>
        <mxCell id="wCrvSFXrAw56gXbHrBbI-45" style="edgeStyle=orthogonalEdgeStyle;rounded=0;orthogonalLoop=1;jettySize=auto;html=1;exitX=0.5;exitY=0.5;exitDx=0;exitDy=0;exitPerimeter=0;entryX=1;entryY=0.5;entryDx=0;entryDy=0;" edge="1" parent="1" source="wCrvSFXrAw56gXbHrBbI-40" target="wCrvSFXrAw56gXbHrBbI-42">
          <mxGeometry relative="1" as="geometry" />
        </mxCell>
        <mxCell id="wCrvSFXrAw56gXbHrBbI-40" value="Pulseira" style="shape=umlActor;verticalLabelPosition=bottom;verticalAlign=top;html=1;outlineConnect=0;" vertex="1" parent="1">
          <mxGeometry x="590" y="810" width="30" height="60" as="geometry" />
        </mxCell>
        <mxCell id="wCrvSFXrAw56gXbHrBbI-46" style="edgeStyle=orthogonalEdgeStyle;rounded=0;orthogonalLoop=1;jettySize=auto;html=1;exitX=0.5;exitY=1;exitDx=0;exitDy=0;entryX=0.5;entryY=0;entryDx=0;entryDy=0;dashed=1;" edge="1" parent="1" source="wCrvSFXrAw56gXbHrBbI-41" target="wCrvSFXrAw56gXbHrBbI-42">
          <mxGeometry relative="1" as="geometry" />
        </mxCell>
        <mxCell id="wCrvSFXrAw56gXbHrBbI-41" value="Consulta localização" style="ellipse;whiteSpace=wrap;html=1;fillColor=#008a00;fontColor=#ffffff;strokeColor=#005700;" vertex="1" parent="1">
          <mxGeometry x="290" y="790" width="190" height="80" as="geometry" />
        </mxCell>
        <mxCell id="wCrvSFXrAw56gXbHrBbI-47" style="edgeStyle=orthogonalEdgeStyle;rounded=1;orthogonalLoop=1;jettySize=auto;html=1;exitX=0;exitY=0.5;exitDx=0;exitDy=0;entryX=0;entryY=0.5;entryDx=0;entryDy=0;dashed=1;curved=0;fillColor=#fa6800;strokeColor=#C73500;" edge="1" parent="1" source="wCrvSFXrAw56gXbHrBbI-42" target="wCrvSFXrAw56gXbHrBbI-39">
          <mxGeometry relative="1" as="geometry" />
        </mxCell>
        <mxCell id="wCrvSFXrAw56gXbHrBbI-42" value="Retorna Localização" style="ellipse;whiteSpace=wrap;html=1;fillColor=#008a00;fontColor=#ffffff;strokeColor=#005700;" vertex="1" parent="1">
          <mxGeometry x="290" y="920" width="190" height="80" as="geometry" />
        </mxCell>
        <mxCell id="wCrvSFXrAw56gXbHrBbI-43" style="edgeStyle=orthogonalEdgeStyle;rounded=0;orthogonalLoop=1;jettySize=auto;html=1;entryX=0.5;entryY=0;entryDx=0;entryDy=0;entryPerimeter=0;dashed=1;curved=1;fillColor=#fa6800;strokeColor=#C73500;" edge="1" parent="1" source="wCrvSFXrAw56gXbHrBbI-39" target="wCrvSFXrAw56gXbHrBbI-40">
          <mxGeometry relative="1" as="geometry" />
        </mxCell>
        <mxCell id="wCrvSFXrAw56gXbHrBbI-54" value="Sistema Geolocalizador" style="text;html=1;align=center;verticalAlign=middle;whiteSpace=wrap;rounded=0;fontSize=20;" vertex="1" parent="1">
          <mxGeometry x="277.5" y="10" width="215" height="30" as="geometry" />
        </mxCell>
      </root>
    </mxGraphModel>
  </diagram>
</mxfile>
